<?xml version="1.0" encoding="UTF-8"?>
<svg id="_レイヤー_1" data-name="レイヤー 1" xmlns="http://www.w3.org/2000/svg" viewBox="0 0 1024 1024">
  <defs>
    <style>
      .cls-1 {
        fill: #fff;
      }
    </style>
  </defs>
  <rect x="128" y="128" width="768" height="768" rx="96" ry="96"/>
  <g>
    <path class="cls-1" d="M381.13,604.82v-185.64h112.97v18.3h-90.7v65.24h77.17v18.03h-77.17v84.07h-22.28Z"/>
    <path class="cls-1" d="M579.22,608c-12.02,0-22.81-2.26-32.35-6.76-9.55-4.51-17.15-10.78-22.81-18.83-5.66-8.04-8.49-17.37-8.49-27.98,0-7.6,1.5-14.67,4.51-21.21,3-6.54,7.2-12.24,12.59-17.11,5.39-4.86,11.63-8.26,18.69-10.21-9.9-3.54-17.55-9.02-22.94-16.44-5.4-7.43-8.09-15.47-8.09-24.13,0-9.19,2.38-17.5,7.16-24.93,4.77-7.43,11.54-13.35,20.29-17.77,8.75-4.42,19.22-6.63,31.42-6.63s22.94,2.21,31.69,6.63c8.75,4.42,15.47,10.34,20.16,17.77,4.68,7.42,7.02,15.74,7.02,24.93,0,8.66-2.7,16.71-8.09,24.13-5.4,7.42-13.04,12.91-22.94,16.44,7.25,1.95,13.57,5.35,18.96,10.21,5.39,4.87,9.54,10.57,12.46,17.11,2.92,6.54,4.38,13.62,4.38,21.21,0,10.61-2.78,19.94-8.35,27.98-5.57,8.05-13.18,14.32-22.81,18.83-9.64,4.51-20.47,6.76-32.49,6.76ZM579.22,588.37c13.97,0,24.35-3.22,31.16-9.68,6.8-6.45,10.21-14.98,10.21-25.59,0-12.02-3.76-21.13-11.27-27.32-7.52-6.19-17.55-9.28-30.1-9.28s-22.59,3.09-30.1,9.28c-7.52,6.19-11.27,15.3-11.27,27.32,0,10.61,3.45,19.14,10.34,25.59,6.9,6.46,17.24,9.68,31.02,9.68ZM579.22,497.94c11.14,0,19.98-2.92,26.52-8.75,6.54-5.83,9.81-13.35,9.81-22.54,0-10.43-3.23-18.3-9.68-23.6-6.45-5.31-15.34-7.96-26.65-7.96s-19.93,2.65-26.38,7.96c-6.46,5.3-9.68,13.17-9.68,23.6,0,9.19,3.22,16.71,9.68,22.54,6.45,5.84,15.25,8.75,26.38,8.75Z"/>
  </g>
</svg>