<?xml version="1.0" encoding="UTF-8"?>
<svg id="_レイヤー_1" data-name="レイヤー 1" xmlns="http://www.w3.org/2000/svg" viewBox="0 0 1024 1024">
  <defs>
    <style>
      .cls-1 {
        fill: #fff;
      }
    </style>
  </defs>
  <rect x="128" y="128" width="768" height="768" rx="96" ry="96"/>
  <g>
    <path class="cls-1" d="M598.43,615.72l2.52-42.59v-177.24c0-6.9-4.91-11.81-11.81-11.81s-11.94,4.91-11.94,11.81v177.24l2.92,42.59c.53,5.97,4.78,9.15,9.15,9.15s8.76-3.18,9.15-9.15ZM529.58,550.58c-2.26-2.26-4.91-3.45-8.23-3.45-6.9,0-11.81,4.78-11.81,11.81,0,2.92,1.46,6.37,3.85,8.76l66.86,68.32c4.91,5.17,12.74,5.44,17.78,0l66.86-68.32c2.39-2.39,3.85-5.84,3.85-8.76,0-7.03-4.91-11.81-11.81-11.81-3.45,0-5.97,1.19-8.23,3.45l-27.59,28.52-31.97,37.41-31.97-37.41-27.59-28.52Z"/>
    <path class="cls-1" d="M444.14,408.36c-.4-5.97-4.78-9.15-9.15-9.15s-8.62,3.18-9.15,9.15l-2.92,42.45v177.24c0,6.9,4.91,11.94,11.94,11.94s11.81-5.04,11.81-11.94v-177.24l-2.52-42.45ZM375.29,473.5l27.59-28.52,31.97-37.55,31.84,37.55,27.73,28.52c2.26,2.26,4.78,3.32,8.23,3.32,6.9,0,11.67-4.64,11.67-11.67,0-3.05-1.33-6.5-3.71-8.76l-66.86-68.46c-5.17-5.31-12.87-5.17-17.78,0l-67,68.46c-2.26,2.26-3.71,5.7-3.71,8.76,0,7.03,4.78,11.67,11.67,11.67,3.45,0,6.1-1.06,8.36-3.32Z"/>
  </g>
</svg>