<?xml version="1.0" encoding="UTF-8"?>
<svg id="_レイヤー_1" data-name="レイヤー 1" xmlns="http://www.w3.org/2000/svg" viewBox="0 0 1024 1024">
  <defs>
    <style>
      .cls-1 {
        fill: #fff;
      }
    </style>
  </defs>
  <rect x="128" y="128" width="768" height="768" rx="96" ry="96"/>
  <path class="cls-1" d="M432.21,640c26.75,0,48.48-21.73,48.48-48.62v-158.62c0-26.89-21.73-48.76-48.48-48.76s-48.48,21.87-48.48,48.76,21.73,47.94,48.48,47.94h38.03c5.7,0,10.19-4.48,10.19-10.19s-4.48-10.32-10.19-10.32h-38.03c-14.94,0-27.3-12.36-27.3-27.43s12.36-27.57,27.3-27.57,27.3,12.49,27.3,27.57v158.62c0,15.07-12.36,27.43-27.3,27.43s-27.3-12.36-27.3-27.43,12.36-27.43,27.3-27.43h159.58c14.94,0,27.3,12.36,27.3,27.43s-12.36,27.43-27.3,27.43-27.3-12.36-27.3-27.43v-158.62c0-15.07,12.36-27.57,27.3-27.57s27.3,12.49,27.3,27.57-12.36,27.43-27.3,27.43h-121.55c-5.7,0-10.32,4.62-10.32,10.32s4.62,10.19,10.32,10.19h121.55c26.75,0,48.48-21.05,48.48-47.94s-21.73-48.76-48.48-48.76-48.48,21.87-48.48,48.76v158.62c0,26.89,21.73,48.62,48.48,48.62s48.48-21.73,48.48-48.62-21.73-47.94-48.48-47.94h-159.58c-26.75,0-48.48,21.05-48.48,47.94s21.73,48.62,48.48,48.62Z"/>
</svg>